<?xml version="1.0" standalone="no"?>
<!DOCTYPE svg PUBLIC "-//W3C//DTD SVG 20010904//EN"
 "http://www.w3.org/TR/2001/REC-SVG-20010904/DTD/svg10.dtd">
<svg version="1.0" xmlns="http://www.w3.org/2000/svg"
 width="256.000000pt" height="256.000000pt" viewBox="0 0 256.000000 256.000000"
 preserveAspectRatio="xMidYMid meet">

<g transform="translate(0.000000,256.000000) scale(0.100000,-0.100000)"
fill="#000000" stroke="none">
<path d="M1080 2543 c-245 -37 -502 -164 -676 -333 -199 -193 -303 -376 -372
-650 -23 -93 -26 -125 -26 -275 0 -188 14 -275 66 -425 204 -578 788 -934
1388 -846 530 78 954 472 1071 996 58 260 22 568 -95 816 -243 513 -793 804
-1356 717z m270 -297 c0 -8 -7 -16 -15 -20 -12 -4 -13 -2 -2 14 14 24 17 25
17 6z m51 -20 c12 7 11 -1 -5 -41 -8 -19 -19 -35 -25 -35 -11 0 -3 38 10 46 5
3 9 10 9 16 0 6 -12 1 -27 -13 l-27 -24 25 31 c13 17 26 27 27 22 2 -4 8 -6
13 -2z m28 -58 c-13 -23 -24 -49 -25 -56 -1 -8 -6 -17 -10 -20 -4 -4 -4 1 -1
10 3 9 1 18 -5 20 -10 4 27 77 46 90 19 13 18 0 -5 -44z m32 -13 c-5 -20 -7
-43 -4 -51 3 -8 -1 -14 -11 -14 -30 0 -18 -35 27 -78 21 -21 22 -52 1 -52 -11
0 -15 6 -11 19 2 11 -5 31 -19 47 -23 29 -31 68 -16 78 5 3 15 31 22 63 8 32
15 50 17 41 3 -9 0 -33 -6 -53z m26 3 c-5 -43 -5 -43 9 -13 l13 30 1 -26 c0
-27 -24 -46 -36 -28 -7 12 4 79 13 79 3 0 3 -19 0 -42z m-125 -40 c-7 -7 -12
-8 -12 -2 0 6 3 14 7 17 3 4 9 5 12 2 2 -3 -1 -11 -7 -17z m139 -35 c13 -16
12 -17 -3 -4 -17 13 -22 21 -14 21 2 0 10 -8 17 -17z m59 -9 c0 -8 -4 -14 -10
-14 -5 0 -10 9 -10 21 0 11 5 17 10 14 6 -3 10 -13 10 -21z m-410 -9 c0 -14
-4 -25 -9 -25 -4 0 -6 11 -3 25 2 14 6 25 8 25 2 0 4 -11 4 -25z m460 -6 c0
-6 -4 -7 -10 -4 -5 3 -10 11 -10 16 0 6 5 7 10 4 6 -3 10 -11 10 -16z m-80
-20 c0 -5 -4 -9 -10 -9 -5 0 -10 7 -10 16 0 8 5 12 10 9 6 -3 10 -10 10 -16z
m-141 -15 c-17 -21 -31 -17 -19 6 6 11 15 18 21 14 6 -4 6 -11 -2 -20z m261 2
c0 -2 -7 -7 -16 -10 -8 -3 -12 -2 -9 4 6 10 25 14 25 6z m15 -86 c22 -11 33
-20 25 -20 -8 0 -28 9 -45 20 -38 25 -30 25 20 0z m-150 -31 c0 -8 5 -14 12
-14 6 0 15 -4 20 -9 4 -5 3 -6 -4 -2 -9 5 -11 -1 -7 -24 4 -19 2 -30 -5 -30
-6 0 -11 8 -11 18 0 21 -51 47 -61 31 -3 -6 -9 -1 -12 12 -4 15 0 27 11 35 19
14 57 3 57 -17z m115 -63 c-10 -10 -27 -1 -40 24 -10 19 -9 19 19 2 17 -9 26
-21 21 -26z m67 -25 c8 8 18 6 35 -5 14 -9 27 -14 30 -11 10 11 58 -56 60 -83
2 -40 -3 -85 -11 -99 -4 -7 -5 18 -3 55 4 63 2 71 -23 98 l-26 29 4 -27 c2
-16 2 -28 0 -28 -11 0 -63 35 -63 43 0 4 -3 6 -7 4 -5 -3 -17 7 -27 22 -20 26
-20 26 0 9 15 -13 23 -15 31 -7z m-60 -26 c1 -14 0 -15 -3 -3 -3 9 -15 19 -27
22 -18 4 -18 4 3 3 17 -1 25 -8 27 -22z m-69 -89 c15 -8 40 -28 56 -44 28 -31
20 -36 -21 -14 -12 7 -43 12 -70 13 -42 0 -45 2 -25 11 16 8 32 8 59 0 28 -9
33 -8 24 1 -7 7 -35 12 -64 13 -40 0 -53 4 -55 17 -3 13 4 17 33 17 20 0 48
-6 63 -14z m-108 -17 c0 -5 -7 -9 -15 -9 -15 0 -20 12 -9 23 8 8 24 -1 24 -14z
m114 -83 c19 -8 37 -19 40 -25 4 -6 -6 -4 -21 3 -15 8 -39 19 -53 25 -14 5
-19 10 -12 10 7 1 28 -5 46 -13z m481 -12 c16 -8 46 -28 65 -45 26 -22 28 -26
8 -14 -51 31 -114 45 -147 32 -34 -12 -44 -6 -56 32 -7 24 -7 24 46 17 30 -4
67 -14 84 -22z m-135 -10 c0 -8 -4 -12 -10 -9 -5 3 -10 13 -10 21 0 8 5 12 10
9 6 -3 10 -13 10 -21z m10 -44 c0 -14 -14 -12 -28 2 -19 19 -14 30 8 18 11 -6
20 -15 20 -20z m-335 -30 c0 -22 -29 -18 -33 3 -3 14 1 18 15 15 10 -2 18 -10
18 -18z m590 -8 c-3 -3 -11 0 -18 7 -9 10 -8 11 6 5 10 -3 15 -9 12 -12z
m-1055 -12 c0 -5 -4 -10 -10 -10 -5 0 -10 5 -10 10 0 6 5 10 10 10 6 0 10 -4
10 -10z m283 -113 c35 -8 76 -42 65 -53 -11 -10 -88 17 -88 30 0 8 -7 19 -15
26 -12 10 -15 6 -23 -22 -6 -23 -14 -33 -28 -33 -15 0 -20 8 -22 43 -2 26 1
42 8 42 7 0 8 6 2 16 -4 8 -6 29 -4 45 4 30 5 30 37 -28 27 -48 38 -59 68 -66z
m827 114 c0 -5 -9 -19 -21 -32 l-20 -24 11 24 c10 19 9 25 -1 32 -10 6 -8 9 9
9 12 0 22 -4 22 -9z m-434 -27 c18 -15 18 -15 -11 -9 -37 8 -57 25 -29 25 11
0 29 -7 40 -16z m-786 -43 c0 -44 -13 -59 -35 -41 -20 17 -19 57 3 69 28 17
32 13 32 -28z m568 23 c26 -18 28 -46 6 -69 -25 -25 -38 -13 -39 38 -1 52 1
54 33 31z m-462 -8 c15 -12 17 -18 8 -33 -20 -33 -41 -27 -46 11 -4 39 6 45
38 22z m366 -16 c-3 -21 -10 -30 -23 -30 -11 0 -22 7 -25 15 -8 19 13 45 35
45 14 0 17 -7 13 -30z m303 2 c-3 -3 -11 0 -18 7 -9 10 -8 11 6 5 10 -3 15 -9
12 -12z m-105 -23 c0 -11 -4 -17 -10 -14 -5 3 -10 15 -10 26 0 11 5 17 10 14
6 -3 10 -15 10 -26z m336 -46 c31 -20 30 -44 -2 -77 -26 -25 -67 -35 -78 -17
-3 4 -16 6 -29 4 -14 -3 -29 2 -36 11 -12 14 -11 16 7 16 35 0 52 11 52 35 0
58 27 67 86 28z m-302 -34 c34 -40 33 -53 -1 -36 -16 8 -52 22 -80 31 -29 10
-53 22 -53 27 0 5 24 9 54 9 48 0 57 -3 80 -31z m202 9 c-3 -13 -5 -25 -5 -27
-2 -7 -31 21 -31 30 0 5 7 6 15 3 8 -4 15 -1 15 5 0 6 2 11 5 11 3 0 3 -10 1
-22z m-366 -134 c0 -18 -65 -48 -91 -41 -10 3 -20 0 -21 -5 -2 -6 -17 -8 -36
-3 -27 5 -32 11 -32 35 0 15 7 34 16 41 14 11 18 10 31 -6 14 -18 15 -18 9 -2
-4 12 3 28 22 46 l27 28 38 -38 c20 -22 37 -46 37 -55z m380 46 c0 -5 -10 -10
-22 -10 -19 0 -20 2 -8 10 19 13 30 13 30 0z m-376 -91 c-12 -19 -88 -49 -124
-48 -34 1 -34 1 8 10 24 4 58 17 75 28 37 22 51 26 41 10z m6 -22 c0 -2 -10
-12 -22 -23 l-23 -19 19 23 c18 21 26 27 26 19z m60 -156 c14 -27 13 -51 -4
-51 -15 0 -26 21 -26 51 0 25 16 24 30 0z m95 -52 c25 -23 43 -45 40 -49 -3
-4 2 -10 10 -14 30 -11 16 -34 -25 -41 -45 -8 -64 0 -56 22 4 10 2 13 -8 10
-17 -7 -36 40 -35 82 0 23 1 24 9 6 8 -19 9 -19 9 3 1 12 3 22 6 22 3 0 26
-19 50 -41z m-309 -41 c-19 -27 -21 -19 -4 18 7 14 14 21 16 15 2 -6 -4 -21
-12 -33z m51 20 c-3 -8 -6 -5 -6 6 -1 11 2 17 5 13 3 -3 4 -12 1 -19z m328
-145 c-8 -44 -25 -68 -25 -36 0 12 5 25 10 28 6 3 10 15 10 26 0 10 3 19 6 19
3 0 3 -17 -1 -37z m-345 -63 c0 -11 -4 -20 -10 -20 -5 0 -10 2 -10 4 0 2 -3
11 -6 20 -4 11 -1 16 10 16 9 0 16 -8 16 -20z m345 -60 c14 -16 16 -23 7 -32
-10 -10 -17 -10 -32 0 -11 6 -27 12 -35 12 -13 0 -12 3 3 19 22 25 35 25 57 1z
m-151 -12 c23 -32 20 -41 -9 -22 -14 9 -30 12 -37 8 -10 -6 -11 -5 -1 8 7 8
10 18 6 21 -3 4 1 7 10 7 9 0 23 -10 31 -22z m-660 -54 c20 -19 21 -44 2 -44
-14 0 -26 21 -26 46 0 18 5 18 24 -2z m669 -11 c9 -21 9 -27 -2 -31 -11 -4
-11 -6 0 -13 17 -10 7 -21 -12 -14 -16 6 -25 85 -9 85 6 0 16 -12 23 -27z
m117 5 c11 -12 20 -24 21 -27 0 -3 2 -18 4 -33 4 -28 3 -28 -26 -13 -29 15
-39 35 -18 35 6 0 3 7 -5 16 -18 17 -21 44 -6 44 5 0 18 -10 30 -22z m-900 -9
c6 -11 10 -25 8 -31 -5 -14 -38 19 -38 38 0 21 18 17 30 -7z m515 3 c0 -18
-20 -15 -23 4 -3 10 1 15 10 12 7 -3 13 -10 13 -16z m-510 -53 c12 -19 -5 -23
-22 -6 -16 16 -16 17 -1 17 9 0 20 -5 23 -11z m133 -6 c6 -19 -25 -16 -32 3
-4 11 -1 14 11 12 9 -2 18 -9 21 -15z m299 -17 c-4 -9 -11 -16 -17 -16 -17 0
-24 31 -9 41 18 11 34 -5 26 -25z m565 7 c24 -28 50 -83 38 -83 -11 0 -70 77
-70 92 0 14 16 9 32 -9z m-734 -62 c2 -13 -1 -28 -7 -34 -8 -8 -11 -7 -11 5 0
8 -7 21 -15 28 -22 18 -18 32 8 28 14 -2 23 -11 25 -27z m310 9 c-14 -22 -24
-19 -15 5 4 8 11 15 17 15 6 0 6 -7 -2 -20z"/>
<path d="M1672 880 c0 -14 2 -19 5 -12 2 6 2 18 0 25 -3 6 -5 1 -5 -13z"/>
<path d="M1760 626 c0 -2 7 -7 16 -10 8 -3 12 -2 9 4 -6 10 -25 14 -25 6z"/>
</g>
</svg>
